<svg id="Camada_1" data-name="Camada 1" xmlns="http://www.w3.org/2000/svg" viewBox="0 0 1139.14 1080"><defs><style>.cls-1,.cls-2{fill:#fff;}.cls-2{font-size:609.99px;font-family:Roboto-Bold, Roboto;font-weight:700;}</style></defs><path class="cls-1" d="M487.35,1080C193,1080-46.49,840.52-46.49,546.15c0-236.7,158.68-447.68,385.89-513.06l9.68,33.65C136.79,127.83-11.48,325-11.48,546.15c0,275.06,223.77,498.83,498.83,498.83A499,499,0,0,0,944.8,745.42l32.09,14A534,534,0,0,1,487.35,1080Z" transform="translate(46.49)"/><polygon class="cls-1" points="243.64 260.51 216.07 238.9 354.06 62.94 133.68 34.74 138.12 0 419.67 36.03 243.64 260.51"/><text class="cls-2" transform="translate(447.83 648.72)">1h</text></svg>