<svg id="Camada_1" data-name="Camada 1" xmlns="http://www.w3.org/2000/svg" viewBox="0 0 1091.37 1080"><defs><style>.cls-1{fill:#fff;}</style></defs><path class="cls-1" d="M184.07,994.56,90.84,901.34,125,774l127.34-34.13,93.22,93.23L311.41,960.44Zm-63.5-101.19L192,964.84l97.62-26.16,26.16-97.62L244.34,769.6l-97.62,26.16Z" transform="translate(5.97)"/><path class="cls-1" d="M646.83,551.6,628,532.75l193-193,8.28,3.52A164.83,164.83,0,0,0,1058.73,189l-90.18,89.37L841.21,244.2,807.09,116.85l89.59-89.59C851.09,25.83,809,43.08,777.16,74.92A164.26,164.26,0,0,0,742.1,256.17l3.52,8.28L550.94,459.12l-18.85-18.84L714.21,258.17A191.48,191.48,0,0,1,896.89,0a27,27,0,0,1,18.63,46.08l-78.71,78.71L863,222.44l97.62,26.15,78.71-78.71a27,27,0,0,1,46.08,18.64A191.49,191.49,0,0,1,827.24,371.19Z" transform="translate(5.97)"/><path class="cls-1" d="M218.36,1058.6c-3.52,0-7-.1-10.56-.29-55.13-3-104.66-28.67-139.46-72.13C14.6,919,13.16,820.62,64.92,752.17c51.61-68.24,141-94.15,220.1-64.82L433.89,538.49l18.84,18.84L291.31,718.76,283,715.24c-69.86-29.7-150.79-7.91-196.84,53-44.52,58.87-43.27,143.52,3,201.28,30,37.47,72.66,59.56,120.12,62.18A164.92,164.92,0,0,0,370.16,802.37l-3.52-8.27L526.36,634.38l18.85,18.84L398.05,800.38A191.56,191.56,0,0,1,218.36,1058.6Z" transform="translate(5.97)"/><path class="cls-1" d="M882.38,1080A191.49,191.49,0,0,1,702.84,821.83L252.2,371.19A191.49,191.49,0,0,1-5.94,188.52,26.85,26.85,0,0,1,21.17,162a26.64,26.64,0,0,1,19,7.91l78.71,78.71,97.62-26.15,26.16-97.62L163.91,46.11A27,27,0,0,1,182.56,0l3.12,0A191.48,191.48,0,0,1,365.23,258.17L815.87,708.81A191.49,191.49,0,0,1,1074,891.48a27,27,0,0,1-46.09,18.64l-78.7-78.71L851.6,857.57l-26.16,97.61,78.71,78.71A27,27,0,0,1,885.51,1080ZM258.49,339.79,734.25,815.55l-3.52,8.27a164.84,164.84,0,0,0,151.66,229.53l2.69,0-89.36-90.17,34.12-127.34,127.34-34.12,89.59,89.58c1.33-45.3-15.81-87.66-47.65-119.51A165.09,165.09,0,0,0,817.86,736.7l-8.28,3.52L333.82,264.45l3.52-8.28A164.84,164.84,0,0,0,185.68,26.65l-2.69,0,89.36,90.17L238.23,244.2,110.88,278.32,21.3,188.73C20,234,37.11,276.39,69,308.24a165.18,165.18,0,0,0,181.26,35.07Z" transform="translate(5.97)"/></svg>