<svg id="Layer_1" data-name="Layer 1" xmlns="http://www.w3.org/2000/svg" viewBox="0 0 411.94 411.94"><path d="M399.31,106.09A206,206,0,1,0,108,397.37,206,206,0,1,0,399.31,106.09Zm-145.64,324a178.1,178.1,0,1,1,126.2-52.17A177.12,177.12,0,0,1,253.67,430.09Z" transform="translate(-47.69 -45.76)" style="fill:#dc2626;fill-rule:evenodd"/><path d="M343,157.66H164.39a27.3,27.3,0,0,0-27.27,27.27V318.54a27.29,27.29,0,0,0,27.27,27.26H343a27.29,27.29,0,0,0,27.26-27.26V184.93A27.29,27.29,0,0,0,343,157.66ZM324.82,184.3l-71,50.95L184.87,184.3ZM343,319.16H164.39a.63.63,0,0,1-.63-.62V201.83l89.79,66.38,90-64.57v114.9A.62.62,0,0,1,343,319.16Z" transform="translate(-47.69 -45.76)" style="fill:#dc2626"/></svg>