<svg id="Layer_1" data-name="Layer 1" xmlns="http://www.w3.org/2000/svg" viewBox="0 0 411.94 411.94"><defs><style>.cls-1{fill:#dc2626;fill-rule:evenodd;}</style></defs><path class="cls-1" d="M401.64,104A206,206,0,1,0,110.36,395.28,206,206,0,1,0,401.64,104ZM256,428a178.12,178.12,0,1,1,126.2-52.18A177.13,177.13,0,0,1,256,428Z" transform="translate(-50.03 -43.67)"/><path class="cls-1" d="M275.79,175.44c0-10.18,6.73-12.62,11.61-12.62h29.68V117.51H276.22c-45.45,0-55.63,33.55-55.63,55.35v23.8H194.2v52.91h26.67v132.2h52.91V249.57h39.14l1.73-20.79,3.15-32.12h-42Z" transform="translate(-50.03 -43.67)"/></svg>