<svg id="Camada_1" data-name="Camada 1" xmlns="http://www.w3.org/2000/svg" viewBox="0 0 713.77 1018.1">
<defs>
<style>.cls-1{fill:#da0716;}</style>
</defs>
<path class="cls-1" d="M617,205c-66.51-33.71-134-28.76-196.14,13.25C354.46,263.12,323.45,344.09,341,419.4c18.68,80,80.43,138.36,162.27,149.75,49.62,6.91,96.52-2.84,138.64-34.31-3-4.1-5-7.65-7.7-10.49-41.47-43.34-83.34-86.3-124.34-130.07-9.61-10.25-18.76-13.07-32.58-11.06-10.53,1.53-22.6-.92-32.78-4.77-32.49-12.29-49.4-54.41-31.3-85,7.52,9.08,13.78,17.79,21.2,25.37,14.7,15,29.61,16.42,42.14,4.86,12-11.07,10.57-29.06-3.46-43.94-7.35-7.79-14.58-15.69-22.86-24.61,53.35-13.4,96.19,26.29,87,76.1-1.14,6.17,1.16,15.41,5.41,19.78,43,44.31,86.86,87.8,130.23,131.76,8.87,9,14.84,9.3,21.79-2.36,19.33-32.41,30-66.94,28.93-104.88C721.44,297.77,685.38,239.64,617,205Z" transform="translate(-178.26 -21.31)"/>
<path class="cls-1" d="M889,333.13c-5.33-39.48-15.88-77.29-34-112.75-26.83-52.67-63.73-96.69-112-131.46-55.73-40.12-118-61.71-185.79-66.71C500.54,18,446,28.52,393.59,51.49,306.37,89.74,244.52,152.89,206.5,239.58,181,297.8,173.45,358.76,181.12,421.87c6.12,50.24,22,97.77,40.73,144.18a747.53,747.53,0,0,0,48,97.51c34,58.2,68.28,116.49,106.43,172C414,890.45,456.5,942.09,497.3,994.86c11.5,14.86,24.35,28.67,37.94,44.55,17.74-21.56,34.79-41,50.48-61.57C627.51,923.18,671,869.61,709.48,812.69,746.55,757.85,779.3,700,811.92,642.28c28.91-51.12,49.83-106,65.75-162.49C891.16,431.92,895.67,382.92,889,333.13ZM529.88,627.62C399,629.49,279.24,523.06,279.66,377.48c.4-141.85,109.14-243.55,236.07-249.21,167.55-7.47,266.19,126.47,265.43,250.28C780.3,516.8,669.05,627.61,529.88,627.62Z" transform="translate(-178.26 -21.31)"/>
</svg>