<svg id="Camada_1" data-name="Camada 1" xmlns="http://www.w3.org/2000/svg" viewBox="0 0 1417.16 1073.5"><path d="M751.39,6.5c20.61,38.81,37,79.38,50.7,121.08,22.07,67.21,36.81,136.12,47.54,206,12,78,19,156.56,23.52,235.34,8.63,149.78,9,299.74,9.32,449.7,0,20.23,0,40.47,0,61.05H742c0-81.19.74-162.22-.21-243.23-.94-80.84-3.57-161.65-5.46-242.9H570.92v486.13H437v-6.29q0-530.47,0-1061c0-2,.15-3.92.24-5.89ZM571.13,136.12V464.75H725.19c0-1.25.07-2,0-2.79-5.47-53.4-12.31-106.62-22.4-159.37C692.33,247.92,678.86,194,659.52,141.74c-1.7-4.6-3.86-5.78-8.46-5.73-21,.24-42.1.11-63.15.11Z" transform="translate(168.58 -6.5)"/><path d="M146.74,6.5c-.13,2.94-.36,5.88-.36,8.82q0,56.37,0,112.74V136H-19.2V465H107.25V593H-19.44v487H-168.58V6.5Z" transform="translate(168.58 -6.5)"/><path d="M1248.58,6.5V135.84h-117.2v943.84H982.11V136.36H862.4V6.5Z" transform="translate(168.58 -6.5)"/><path d="M357,6.5c0,2.76-.13,5.51-.13,8.27V1079.63h-154v-8.58q0-527.88,0-1055.76c0-2.93-.33-5.86-.51-8.79Z" transform="translate(168.58 -6.5)"/></svg>