<svg id="Camada_1" data-name="Camada 1" xmlns="http://www.w3.org/2000/svg" viewBox="0 0 1067.47 1074.13"><defs><style>.cls-1{fill:#fff;}</style></defs><path class="cls-1" d="M508.75,775.71c-113.07,0-205.08-92-205.08-205.09s92-205.09,205.08-205.09,205.1,92,205.1,205.09S621.85,775.71,508.75,775.71Zm0-382.86c-98,0-177.76,79.75-177.76,177.77S410.73,748.4,508.75,748.4s177.78-79.75,177.78-177.78S606.79,392.85,508.75,392.85Z" transform="translate(-5.25 0)"/><path class="cls-1" d="M1003.46,669.74a68.57,68.57,0,0,1-11.25-.92L826.34,641.46c-44-7.26-76.89-42.64-80.05-86a248.08,248.08,0,0,0-303-223.35A103.87,103.87,0,0,1,420,334.74c-37,0-70.13-19.92-86.51-52L257.08,133.19a69,69,0,0,1-3-55.85,67.76,67.76,0,0,1,38.76-39A571.87,571.87,0,0,1,592.42,7.71c289.91,47.82,496,304.8,479.36,597.75A68.33,68.33,0,0,1,1003.46,669.74ZM498.74,298.43a278.34,278.34,0,0,1,45.11,3.71c126,20.79,220.42,124.12,229.67,251.29,2.24,30.77,25.8,55.88,57.28,61.07l165.87,27.37a41.09,41.09,0,0,0,47.85-38C1060.35,324.93,864.07,80.2,588,34.66A544.48,544.48,0,0,0,302.68,63.79a39.89,39.89,0,0,0-23.08,23.3,41.54,41.54,0,0,0,1.81,33.67l76.41,149.56c11.69,22.89,35.51,37.11,62.18,37.11a76.46,76.46,0,0,0,17.14-2A274.08,274.08,0,0,1,498.74,298.43Z" transform="translate(-5.25 0)"/><path class="cls-1" d="M508.75,1074.13c-277.62,0-503.5-225.87-503.5-503.51A503.59,503.59,0,0,1,268.74,127.89l13,24A476.25,476.25,0,0,0,32.57,570.62c0,262.57,213.62,476.19,476.18,476.19,232.28,0,429.6-165.84,469.19-394.33l26.92,4.67C963,898.76,754.36,1074.13,508.75,1074.13Z" transform="translate(-5.25 0)"/><path class="cls-1" d="M508.75,517.53a31.14,31.14,0,0,1-31.14-31.14V465a31.15,31.15,0,0,1,62.29,0v21.4A31.15,31.15,0,0,1,508.75,517.53Z" transform="translate(-5.25 0)"/><path class="cls-1" d="M428.65,575.74a31.09,31.09,0,0,1-9.63-1.53l-20.36-6.61a31.15,31.15,0,0,1,19.26-59.24L438.28,515a31.14,31.14,0,0,1-9.63,60.76Z" transform="translate(-5.25 0)"/><path class="cls-1" d="M446.64,687.23a31.15,31.15,0,0,1-25.17-49.44l12.58-17.32a31.14,31.14,0,1,1,50.39,36.6l-12.58,17.32A31.12,31.12,0,0,1,446.64,687.23Z" transform="translate(-5.25 0)"/><path class="cls-1" d="M570.87,687.23a31.12,31.12,0,0,1-25.22-12.84l-12.58-17.32a31.14,31.14,0,1,1,50.39-36.6L596,637.79a31.15,31.15,0,0,1-25.17,49.44Z" transform="translate(-5.25 0)"/><path class="cls-1" d="M588.86,575.74A31.14,31.14,0,0,1,579.24,515l20.37-6.62a31.14,31.14,0,0,1,19.23,59.24l-20.36,6.61A31,31,0,0,1,588.86,575.74Z" transform="translate(-5.25 0)"/><rect class="cls-1" x="183.74" y="388.36" width="27.31" height="213.54" transform="translate(-297.54 284.61) rotate(-45)"/><rect class="cls-1" x="233.97" y="829.75" width="213.54" height="27.32" transform="translate(-351.04 246.66) rotate(-27)"/><rect class="cls-1" x="702.62" y="707.94" width="27.3" height="213.54" transform="matrix(0.99, -0.16, 0.16, 0.99, -123.9, 122.11)"/></svg>