<svg id="Camada_1" data-name="Camada 1" xmlns="http://www.w3.org/2000/svg" viewBox="0 0 642.07 1079.23"><defs><style>.cls-1{fill:#fff;}</style></defs><path class="cls-1" d="M852.58,580.69H833.64a10.92,10.92,0,0,1-10.91-10.48l-.33-8.11h55.75a10.92,10.92,0,0,0,10.33-14.45l-28.39-83.19a10.92,10.92,0,0,0-10.34-7.4H828.62a10.93,10.93,0,0,1-10.92-10.48L807.57,197.33c-.68-29.16-13.55-53.55-31.71-63.89a10.72,10.72,0,0,1-5.08-9.42V99.26a9.82,9.82,0,0,1,.07-1.21l4.61-41.16a10.92,10.92,0,0,0-.81-5.5l-20-46.81a10.92,10.92,0,0,0-10-6.63H702.91a10.91,10.91,0,0,0-10,6.63l-20,46.81a10.92,10.92,0,0,0-.81,5.5l4.61,41.16c0,.4.07.81.07,1.21V124a10.74,10.74,0,0,1-5.08,9.41c-18.17,10.34-31,34.73-31.71,63.89L629.84,446.58a10.92,10.92,0,0,1-10.91,10.48H597.79a10.92,10.92,0,0,0-10.33,7.39l-28.4,83.2A10.92,10.92,0,0,0,569.4,562.1h55.74l-.33,8.11a10.92,10.92,0,0,1-10.91,10.48H595a24.85,24.85,0,0,0-24.85,24.84v120a13.84,13.84,0,0,0,2.16,7.43l4.84,48.85a24.84,24.84,0,0,0,24.73,22.4h0a10.92,10.92,0,0,1,10.92,10.92V967.29a10.92,10.92,0,0,0,10.92,10.92h34.4A10.92,10.92,0,0,1,669,989.13v23.06a10.91,10.91,0,0,0,10.92,10.92h87.67a10.92,10.92,0,0,0,10.92-10.92V989.13a10.92,10.92,0,0,1,10.92-10.92h17.4v15.06l0,.51.07.68c.05.66,1,16.28-12.13,30.43-13.56,14.6-38,23-71,24.43a11,11,0,0,0-10.69,10.9v6a10.86,10.86,0,0,0,11.16,10.92c41.85-1.69,72.63-13.11,91.58-34,19.33-21.32,19.16-45.28,18.88-50.33V815.1a10.92,10.92,0,0,1,10.92-10.92h.09a24.84,24.84,0,0,0,24.72-22.4l4.84-48.85a13.84,13.84,0,0,0,2.16-7.43v-120A24.84,24.84,0,0,0,852.58,580.69ZM843,776.34H604.56l-3.65-36.91H846.63Zm-36.13,174H640.62V935.12H806.85Zm-56.17,44.91H696.86V978.21h53.82Zm56.17-88H640.62V893H806.85Zm0-42.15H640.62V850.82H806.85Zm0-42.16H640.62v-14.3H806.85ZM598,696.52V619.46a10.92,10.92,0,0,1,10.92-10.92H838.65a10.92,10.92,0,0,1,10.92,10.92v92.12H598V696.52Zm30.31-211.61H829.83a10.93,10.93,0,0,1,10.34,7.39l9.38,27.51a10.91,10.91,0,0,1-10.33,14.44H608.33A10.92,10.92,0,0,1,598,519.81l9.39-27.51a10.92,10.92,0,0,1,10.33-7.39Zm63-329h65c4.93,0,10.19,3.9,14.49,10.44,5,7.58,8.67,18.73,9,31.68l.36,8.65a10.92,10.92,0,0,1-10.92,11.36H678.38a10.92,10.92,0,0,1-10.92-11.36l.35-8.4v-.25c.29-12.94,4-24.09,9-31.67C681.06,159.86,686.33,156,691.25,156Zm-14.9,90h94.84a10.93,10.93,0,0,1,10.92,10.48l1,24.07a10.93,10.93,0,0,1-10.92,11.37h-96.8a10.93,10.93,0,0,1-10.91-11.37l1-24.07A10.92,10.92,0,0,1,676.35,245.94Zm-3,73.77H774.19a10.91,10.91,0,0,1,10.91,10.47l4.7,115.52a10.92,10.92,0,0,1-10.91,11.36H668.66a10.91,10.91,0,0,1-10.91-11.36l4.69-115.52A10.93,10.93,0,0,1,673.36,319.71ZM663.5,562.1H784.05A10.92,10.92,0,0,1,795,572.58l.33,8.11h-143l.33-8.11A10.93,10.93,0,0,1,663.5,562.1ZM721.3,25.8h4.94a10.91,10.91,0,0,1,10,6.63l9.88,23.15a10.91,10.91,0,0,1,.81,5.5l-3.89,34.65c0,.4-.06.8-.06,1.19l0,20.29a10.93,10.93,0,0,1-10.92,10.9H715.53a10.92,10.92,0,0,1-10.92-10.92V98.47a11.85,11.85,0,0,0-.06-1.19l-4-36.21a10.92,10.92,0,0,1,.81-5.48l9.88-23.16A10.92,10.92,0,0,1,721.3,25.8Z" transform="translate(-247.01 2.05)"/><rect class="cls-1" y="714.62" width="190.14" height="34.57" rx="7.99"/><path class="cls-1" d="M429.46,325.05H367.05a7.69,7.69,0,0,1-7.69-7.69V255a7.69,7.69,0,0,0-7.69-7.69H332.49A7.69,7.69,0,0,0,324.8,255v62.4a7.69,7.69,0,0,1-7.69,7.69H254.7a7.69,7.69,0,0,0-7.69,7.69v19.19a7.69,7.69,0,0,0,7.69,7.69h62.41a7.68,7.68,0,0,1,7.69,7.68v62.41a7.69,7.69,0,0,0,7.69,7.69h19.18a7.69,7.69,0,0,0,7.69-7.69V367.3a7.69,7.69,0,0,1,7.69-7.68h62.41a7.69,7.69,0,0,0,7.69-7.69V332.74A7.69,7.69,0,0,0,429.46,325.05Z" transform="translate(-247.01 2.05)"/></svg>