<svg id="Layer_1" data-name="Layer 1" xmlns="http://www.w3.org/2000/svg" viewBox="0 0 387.4 387.4"><defs><style>.cls-1{fill:#dc2626;}</style></defs><path class="cls-1" d="M185.47,256A64.57,64.57,0,1,1,250,320.56,64.56,64.56,0,0,1,185.47,256m-34.9,0A99.47,99.47,0,1,0,250,156.53,99.46,99.46,0,0,0,150.57,256M330.19,152.6a23.24,23.24,0,1,0,23.24-23.24,23.25,23.25,0,0,0-23.24,23.24M171.76,413.66c-18.88-.86-29.14-4-36-6.66A64.27,64.27,0,0,1,99,370.23c-2.65-6.82-5.8-17.08-6.66-36-.94-20.43-1.14-26.56-1.14-78.27s.2-57.85,1.14-78.28c.86-18.88,4-29.13,6.66-36A64.21,64.21,0,0,1,135.8,105c6.82-2.65,17.08-5.81,36-6.67,20.43-.93,26.55-1.13,78.27-1.13s57.85.2,78.28,1.13c18.88.86,29.14,4,36,6.67A64.16,64.16,0,0,1,401,141.76c2.65,6.83,5.81,17.08,6.67,36,.94,20.43,1.13,26.55,1.13,78.28s-.19,57.84-1.13,78.27c-.86,18.88-4,29.14-6.67,36A64.21,64.21,0,0,1,364.27,407c-6.82,2.65-17.08,5.8-36,6.66-20.43.94-26.55,1.13-78.28,1.13s-57.84-.19-78.27-1.13M170.17,63.47c-20.62.93-34.69,4.21-47,9a99,99,0,0,0-56.64,56.65c-4.79,12.32-8.07,26.4-9,47S56.33,203.39,56.33,256s.23,59.2,1.17,79.86,4.22,34.7,9,47a94.66,94.66,0,0,0,22.34,34.31,95.13,95.13,0,0,0,34.3,22.35c12.33,4.79,26.4,8.06,47,9s27.26,1.17,79.86,1.17,59.21-.23,79.87-1.17,34.69-4.21,47-9a99.1,99.1,0,0,0,56.64-56.66c4.79-12.31,8.07-26.39,9-47s1.16-27.26,1.16-79.86-.22-59.21-1.16-79.86-4.22-34.7-9-47a99,99,0,0,0-56.64-56.65c-12.33-4.79-26.41-8.07-47-9S302.64,62.3,250,62.3s-59.19.22-79.86,1.17" transform="translate(-56.33 -62.3)"/></svg>