<svg id="Camada_1" data-name="Camada 1" xmlns="http://www.w3.org/2000/svg" viewBox="0 0 747.83 1080"><defs><style>.cls-1{fill:#fff;}</style></defs><path class="cls-1" d="M791,1080H301.18c-74.65,0-135.38-60.73-135.38-135.38V606.42a173,173,0,0,1,28.48-95.21l195-296.72a172.88,172.88,0,0,1,144.89-78.16H817.23a96.51,96.51,0,0,1,96.41,96.39v724.6A122.83,122.83,0,0,1,791,1080ZM534.16,162.72A146.55,146.55,0,0,0,411.33,229l-195,296.72a146.59,146.59,0,0,0-24.15,80.72v338.2a109.11,109.11,0,0,0,109,109H791a96.4,96.4,0,0,0,96.29-96.29V232.72a70.08,70.08,0,0,0-70-70Z" transform="translate(-165.8)"/><path class="cls-1" d="M783.32,1012.36H296.12A64.17,64.17,0,0,1,232,948.27V656.49a185.07,185.07,0,0,1,32.63-105.18l177-257.89a80.65,80.65,0,0,1,66.52-35H768.46a79,79,0,0,1,78.95,79V948.27A64.17,64.17,0,0,1,783.32,1012.36ZM508.2,284.79a54.3,54.3,0,0,0-44.77,23.57l-177,257.89a158.81,158.81,0,0,0-28,90.24V948.27A37.75,37.75,0,0,0,296.12,986h487.2a37.75,37.75,0,0,0,37.7-37.7V337.35a52.62,52.62,0,0,0-52.56-52.56Z" transform="translate(-165.8)"/><path class="cls-1" d="M816.22,162.72h-250V50.59A50.64,50.64,0,0,1,616.8,0H765.63a50.65,50.65,0,0,1,50.59,50.59ZM592.6,136.33H789.83V50.59a24.23,24.23,0,0,0-24.2-24.2H616.8a24.23,24.23,0,0,0-24.2,24.2Z" transform="translate(-165.8)"/><path class="cls-1" d="M587.87,824.64c-71.69,0-130-58.33-130-130,0-66.68,107-224.93,119.15-242.75l10.88-15.92,10.89,15.92C611,469.68,717.91,627.93,717.91,694.61,717.91,766.31,659.57,824.64,587.87,824.64Zm0-341.61c-36.61,55.71-103.64,167-103.64,211.58a103.65,103.65,0,0,0,207.29,0C691.52,650,624.48,538.74,587.87,483Z" transform="translate(-165.8)"/></svg>