<svg id="Camada_1" data-name="Camada 1" xmlns="http://www.w3.org/2000/svg" viewBox="0 0 753.71 1080"><defs><style>.cls-1{fill:#fff;}</style></defs><path class="cls-1" d="M330.76,1080a79.55,79.55,0,0,0,79.42-82c-.7-22.49-11.74-43.42-28.47-58.46l-8.49-7.62h7.53A12.9,12.9,0,0,0,393.64,919V878.22h80.19a24.82,24.82,0,0,0,24.82-24.82V825.29a24.82,24.82,0,0,0-24.82-24.82H393.64V734.92l64.81-19.68c24.17-7.34,40.15-31.93,34.37-56.51a47,47,0,0,0-46-36.53,47.65,47.65,0,0,0-13.75,2l-39.44,12V600.44l64.83-19.69c24.16-7.34,40.13-31.92,34.35-56.49a47.19,47.19,0,0,0-59.73-34.5l-39.45,12V466l64.81-19.67c24.17-7.34,40.15-31.93,34.37-56.52a47,47,0,0,0-46-36.53,47.66,47.66,0,0,0-13.75,2l-39.44,12V331.48l65.1-19.78c10.5-3.19,20.16-9.28,26.5-18.25a47.29,47.29,0,0,0-23.57-72.34l-14.25-4.67-53.78,16.34v-22.3h80.29a24.72,24.72,0,0,0,24.72-24.72V137.93a24.72,24.72,0,0,0-24.72-24.72H452.37l1.92-6.91a80.66,80.66,0,0,0,2.91-21.47C457.2,38.06,417,0,367.69,0H293.83c-49.35,0-89.52,38.06-89.52,84.83a80.27,80.27,0,0,0,2.92,21.47l1.91,6.91H187.59a24.72,24.72,0,0,0-24.72,24.72v47.83a24.72,24.72,0,0,0,24.72,24.72h80.28V271l-65.09,19.78c-10.51,3.19-20.16,9.28-26.5,18.25a47.23,47.23,0,0,0,38.41,74.7,47.69,47.69,0,0,0,13.74-2l39.44-12v35.79l-65,19.73c-10.52,3.19-20.2,9.27-26.57,18.23a47.22,47.22,0,0,0,38.36,74.76,47.59,47.59,0,0,0,13.74-2l39.44-12v35.79L202.79,559.7c-10.51,3.19-20.17,9.29-26.51,18.25a47.2,47.2,0,0,0,52.14,72.66l39.45-12v35.78l-65,19.72c-10.52,3.2-20.21,9.27-26.58,18.23a47.23,47.23,0,0,0,38.36,74.77,47.59,47.59,0,0,0,13.74-2l39.44-12v27.36H187.68a24.81,24.81,0,0,0-24.81,24.82V853.4a24.81,24.81,0,0,0,24.81,24.82h80.19V919a12.91,12.91,0,0,0,12.9,12.9h7.53l-8.49,7.62c-16.74,15-27.78,36-28.47,58.46A79.55,79.55,0,0,0,330.76,1080ZM293.83,20.76h73.86c37.9,0,68.74,28.74,68.74,64.07A59.84,59.84,0,0,1,430.89,110l-1.46,3.17H232.07L230.61,110a60,60,0,0,1-5.53-25.2C225.08,49.5,255.92,20.76,293.83,20.76ZM183.63,175.84v-28A13.88,13.88,0,0,1,197.52,134H464a13.87,13.87,0,0,1,13.88,13.88v28A13.87,13.87,0,0,1,464,189.72H197.52A13.88,13.88,0,0,1,183.63,175.84Zm189.25,34.64v28.61l-84.24,25.59v-54.2ZM222.39,361.79A26.46,26.46,0,1,1,207,311.16l232.11-70.5c13.72-4.17,28.89,4.09,33,17.63a26.48,26.48,0,0,1-17.63,33Zm150.49-24v35.78l-84.24,25.59V363.36ZM222.39,496.27a26.32,26.32,0,0,1-7.7,1.15,26.64,26.64,0,0,1-25.31-18.77,26.48,26.48,0,0,1,17.64-33l232.11-70.49c13.73-4.16,28.89,4.1,33,17.63a26.49,26.49,0,0,1-17.63,33Zm150.49-24v35.79l-84.24,25.59V497.85ZM222.39,630.75a26.08,26.08,0,0,1-7.7,1.16,26.64,26.64,0,0,1-25.31-18.79,26.46,26.46,0,0,1,17.64-33l232.11-70.49c17.77-5.51,39.07,10.65,33,32.2-2.59,9.21-10.24,16.18-19.4,19Zm150.49-24v35.79l-84.24,25.58V632.32ZM222.39,765.24a26.43,26.43,0,0,1-33-17.63,26.46,26.46,0,0,1,17.64-33l232.11-70.5c13.72-4.18,28.89,4.09,33,17.63a26.46,26.46,0,0,1-17.64,33Zm150.49-24v59.25H288.64V766.81ZM183.63,843.72V835a13.74,13.74,0,0,1,13.74-13.74H464.14A13.74,13.74,0,0,1,477.88,835v8.75a13.75,13.75,0,0,1-13.74,13.75H197.37A13.75,13.75,0,0,1,183.63,843.72Zm189.25,34.5v25.11a7.84,7.84,0,0,1-7.85,7.84H296.48a7.84,7.84,0,0,1-7.84-7.84V878.22Zm-55.56,65.11a58.76,58.76,0,1,1-43.77,43.77A58.85,58.85,0,0,1,317.32,943.33Z" transform="translate(-162.87)"/><path class="cls-1" d="M330.76,960.56a40,40,0,1,0,40,40A40,40,0,0,0,330.76,960.56Zm0,59.21A19.23,19.23,0,1,1,350,1000.54,19.26,19.26,0,0,1,330.76,1019.77Z" transform="translate(-162.87)"/><path class="cls-1" d="M748.68,1080a79.55,79.55,0,0,0,79.42-82c-.7-22.49-11.74-43.42-28.47-58.46l-8.49-7.62h7.53A12.9,12.9,0,0,0,811.56,919V878.22h80.19a24.82,24.82,0,0,0,24.82-24.82V825.29a24.82,24.82,0,0,0-24.82-24.82H811.56V734.92l64.81-19.68c24.17-7.34,40.15-31.93,34.37-56.51a47,47,0,0,0-46-36.53,47.65,47.65,0,0,0-13.75,2l-39.44,12V600.44l64.83-19.69c24.16-7.34,40.13-31.92,34.35-56.49A47.19,47.19,0,0,0,851,489.76l-39.45,12V466l64.81-19.67c24.17-7.34,40.15-31.93,34.37-56.52a47,47,0,0,0-46-36.53,47.66,47.66,0,0,0-13.75,2l-39.44,12V331.48l65.1-19.78c10.5-3.19,20.16-9.28,26.5-18.25a47.29,47.29,0,0,0-23.57-72.34l-14.25-4.67-53.78,16.34v-22.3h80.29a24.72,24.72,0,0,0,24.72-24.72V137.93a24.72,24.72,0,0,0-24.72-24.72H870.29l1.92-6.91a80.66,80.66,0,0,0,2.91-21.47C875.12,38.06,835,0,785.61,0H711.75c-49.35,0-89.52,38.06-89.52,84.83a80.27,80.27,0,0,0,2.92,21.47l1.91,6.91H605.51a24.73,24.73,0,0,0-24.73,24.72v47.83a24.73,24.73,0,0,0,24.73,24.72h80.28V271L620.7,290.75c-10.51,3.19-20.16,9.28-26.5,18.25a47.23,47.23,0,0,0,38.41,74.7,47.69,47.69,0,0,0,13.74-2l39.44-12v35.79l-65,19.73c-10.52,3.19-20.2,9.27-26.57,18.23a47.22,47.22,0,0,0,38.36,74.76,47.59,47.59,0,0,0,13.74-2l39.44-12v35.79L620.71,559.7C610.2,562.89,600.54,569,594.2,578a47.2,47.2,0,0,0,52.14,72.66l39.45-12v35.78l-65,19.72c-10.52,3.2-20.21,9.27-26.58,18.23a47.23,47.23,0,0,0,38.36,74.77,47.59,47.59,0,0,0,13.74-2l39.44-12v27.36H605.6a24.82,24.82,0,0,0-24.82,24.82V853.4a24.82,24.82,0,0,0,24.82,24.82h80.19V919a12.91,12.91,0,0,0,12.9,12.9h7.53l-8.49,7.62c-16.74,15-27.78,36-28.47,58.46A79.55,79.55,0,0,0,748.68,1080ZM711.75,20.76h73.86c37.9,0,68.74,28.74,68.74,64.07A59.84,59.84,0,0,1,848.81,110l-1.46,3.17H650L648.53,110A60,60,0,0,1,643,84.83C643,49.5,673.84,20.76,711.75,20.76ZM601.55,175.84v-28A13.88,13.88,0,0,1,615.44,134H881.92a13.87,13.87,0,0,1,13.88,13.88v28a13.87,13.87,0,0,1-13.88,13.88H615.44A13.88,13.88,0,0,1,601.55,175.84ZM790.8,210.48v28.61l-84.24,25.59v-54.2ZM640.31,361.79a26.46,26.46,0,1,1-15.37-50.63l232.11-70.5c13.72-4.17,28.89,4.09,33,17.63a26.48,26.48,0,0,1-17.63,33Zm150.49-24v35.78l-84.24,25.59V363.36ZM640.31,496.27a26.32,26.32,0,0,1-7.7,1.15,26.64,26.64,0,0,1-25.31-18.77,26.48,26.48,0,0,1,17.64-33l232.11-70.49c13.73-4.16,28.89,4.1,33,17.63a26.49,26.49,0,0,1-17.63,33Zm150.49-24v35.79l-84.24,25.59V497.85ZM640.31,630.75a26.08,26.08,0,0,1-7.7,1.16,26.64,26.64,0,0,1-25.31-18.79,26.46,26.46,0,0,1,17.64-33l232.11-70.49c17.77-5.51,39.07,10.65,33,32.2-2.59,9.21-10.24,16.18-19.4,19Zm150.49-24v35.79l-84.24,25.58V632.32ZM640.31,765.24a26.43,26.43,0,0,1-33-17.63,26.46,26.46,0,0,1,17.64-33l232.11-70.5c13.72-4.18,28.89,4.09,33,17.63a26.46,26.46,0,0,1-17.64,33Zm150.49-24v59.25H706.56V766.81ZM601.55,843.72V835a13.74,13.74,0,0,1,13.74-13.74H882.06A13.74,13.74,0,0,1,895.8,835v8.75a13.75,13.75,0,0,1-13.74,13.75H615.29A13.75,13.75,0,0,1,601.55,843.72Zm189.25,34.5v25.11a7.84,7.84,0,0,1-7.85,7.84H714.4a7.84,7.84,0,0,1-7.84-7.84V878.22Zm-55.56,65.11a58.76,58.76,0,1,1-43.77,43.77A58.85,58.85,0,0,1,735.24,943.33Z" transform="translate(-162.87)"/><path class="cls-1" d="M748.68,960.56a40,40,0,1,0,40,40A40,40,0,0,0,748.68,960.56Zm0,59.21a19.23,19.23,0,1,1,19.22-19.23A19.26,19.26,0,0,1,748.68,1019.77Z" transform="translate(-162.87)"/></svg>