<svg id="Camada_1" data-name="Camada 1" xmlns="http://www.w3.org/2000/svg" viewBox="0 0 824.92 824.91"><defs><style>.cls-1{fill:#b91c1c;}</style></defs><path class="cls-1" d="M434.84,418.32c8.14-8.16,19.77-22.27,25.83-37.13C481.58,329.87,472,319.93,472,319.93,458.3,290.29,428.85,250.68,390,211.77s-78.55-68.29-108.17-82.08c0,0-48.16-14.82-84.28,21.46-.22-.1,0,0-.36.37a.32.32,0,0,1-.19.07l.05,0c-5,5-9.56,10-13.87,15Z" transform="translate(-125.7 -126.69)"/><path class="cls-1" d="M947.62,795.5c-13.72-29.61-43.15-69.23-82.09-108.16S787,619,757.38,605.27c0,0-9.93-9.56-61.26,11.4-14.85,6-29,17.7-37.13,25.79L910.7,894.16q7.44-6.45,15-13.88h0a.43.43,0,0,1,.07-.15c.38-.36.47-.2.38-.36C962.43,843.6,947.62,795.5,947.62,795.5Z" transform="translate(-125.7 -126.69)"/><path class="cls-1" d="M632.09,678.6c-8,10.7-20.55,15.11-35.59,15.11-45.84,0-114.35-41-143.1-69.74-38.24-38.25-98-146.52-54.69-178.75,2.44-1.51,4.91-3.06,7.41-4.7l-245-245c-36.94,56-35.43,100.73-35.43,100.73s-6.4,203.35,222.81,432.53c217.06,217,410.93,222.78,430.82,222.78h2.42c6.07,0,48.2-1.28,100-35.45l-245-245C635.15,673.68,633.57,676.16,632.09,678.6Z" transform="translate(-125.7 -126.69)"/></svg>