<svg id="Layer_1" data-name="Layer 1" xmlns="http://www.w3.org/2000/svg" viewBox="0 0 420.11 419.67"><path d="M354.26,286.39c-5.23-2.51-29.82-14.81-34.38-16.63-5-1.36-8.2-2.5-11.62,2.74-3.19,5-13,16.16-15.93,19.35-3,3.65-5.93,3.87-10.7,1.59-5.46-2.5-21.64-7.74-40.76-25A149.18,149.18,0,0,1,212.63,234c-2.73-5.46-.47-7.73,2.05-10.7,2.5-2.05,5.23-5.46,7.74-8.66a8.62,8.62,0,0,0,1.82-2.27,50.63,50.63,0,0,0,3.19-5.92,7.86,7.86,0,0,0-.46-8.66c-.91-2.5-11.15-27.55-15.49-37.34-4.09-10.24-8.42-8.43-11.14-8.43-3.21,0-6.38-.45-9.8-.45A17.39,17.39,0,0,0,177.11,158c-5,5-18,16.85-18,41.89a52.52,52.52,0,0,0,3,16.86c4.79,18,16.17,32.33,17.77,34.84,2.51,3.41,34.84,55.56,86.29,75.59,51.7,20,51.7,13.21,60.8,12.53s29.83-11.84,34.16-23.91c4.1-11.61,4.1-21.63,2.74-23.91-1.15-1.59-4.56-3.19-9.57-5.46Z" transform="translate(-45.94 -40.69)" style="fill:#dc2626;fill-rule:evenodd"/><path d="M465.84,239.93c-3-110.66-94-199.24-206.08-199.24C149.11,40.69,58.69,127,54.14,236.06a57.22,57.22,0,0,0-.45,8.88A204.22,204.22,0,0,0,83.29,350.6L45.94,460.36l114.31-36.21a207,207,0,0,0,99.51,25.28c113.86,0,206.3-91.31,206.3-204.49C466.06,243.12,465.84,241.75,465.84,239.93ZM259.76,417.09a172.71,172.71,0,0,1-95.18-28.46L98.09,409.8l21.4-64a170.47,170.47,0,0,1-33-100.88,136.14,136.14,0,0,1,.91-16.62C96,141.11,170,73,259.76,73c91.08,0,166,69.9,172.83,158.48a133.27,133.27,0,0,1,.46,13.43C433.05,339.67,355.4,417.09,259.76,417.09Z" transform="translate(-45.94 -40.69)" style="fill:#dc2626;fill-rule:evenodd"/></svg>